# xmcd
#
# Track frame offsets:
#	150
#	19262
#	28960
#	38955
#	51402
#	64697
#	76117
#	89965
#	99060
#	111442
#	124395
#	143402
#	162247
#	176757
#	191432
#	205172
#	217067
#	228890
#	238397
#	253460
#	267320
#	278772
#	288682
#	299127
#	314445
#	316462
#	319450
#	322707
#	327467
#	330507
#	333615
#	337737
#	340005
#
# Disc length: 4561 seconds
#
# Revision: 1
# Processed by: cddbd v1.5.2PL0 Copyright (c) Steve Scherf et al.
# Submitted via: audiograbber 1.83.01
#
DISCID=0f11cf21
DTITLE=Tom T. Hall - The Storyteller
DYEAR=1900
DGENRE=Country
TTITLE0=Old Dogs, Children and Watermelon Wine
TTITLE1=I Love
TTITLE2=Country Is
TTITLE3=The Year That Clayton Delaney Died
TTITLE4=I Like Beer
TTITLE5=Ravishing Ruby
TTITLE6=Ballad Of Fourty Dollars
TTITLE7=Sneaky Snake
TTITLE8=I Washed My Face In The Morning Dew
TTITLE9=Faster Horses
TTITLE10=Turn It On, Turn It On, Turn It On
TTITLE11=She Gave Her Heart To Jethro
TTITLE12=That Song Is Driving Me Crazy
TTITLE13=Pay No Attention To Alice
TTITLE14=That's How I Got To Memphis
TTITLE15=Who's Gonna Feed Them Hogs
TTITLE16=Pamela Brown
TTITLE17=I Care
TTITLE18=Homecoming
TTITLE19=A Week In A County Jail
TTITLE20=One Hundred Children
TTITLE21=Lets Spend Christmas At My House
TTITLE22=Your Man Loves You, Honey
TTITLE23=Me And Jesus
TTITLE24=Tom T Hall Interview
TTITLE25=Interview1
TTITLE26=Interview2
TTITLE27=Interview3
TTITLE28=Interview4
TTITLE29=Interview5
TTITLE30=Interview6
TTITLE31=Interview7
TTITLE32=Interview8
EXTD=
EXTT0=
EXTT1=
EXTT2=
EXTT3=
EXTT4=
EXTT5=
EXTT6=
EXTT7=
EXTT8=
EXTT9=
EXTT10=
EXTT11=
EXTT12=
EXTT13=
EXTT14=
EXTT15=
EXTT16=
EXTT17=
EXTT18=
EXTT19=
EXTT20=
EXTT21=
EXTT22=
EXTT23=
EXTT24=
EXTT25=
EXTT26=
EXTT27=
EXTT28=
EXTT29=
EXTT30=
EXTT31=
EXTT32=
PLAYORDER=
